<?xml version="1.0" encoding="utf-8"?>
<!-- Generator: Adobe Illustrator 25.0.0, SVG Export Plug-In . SVG Version: 6.00 Build 0)  -->
<svg version="1.1" id="Livello_1" xmlns="http://www.w3.org/2000/svg" xmlns:xlink="http://www.w3.org/1999/xlink" x="0px" y="0px"
	 viewBox="0 0 170.1 170.1" style="enable-background:new 0 0 170.1 170.1;" xml:space="preserve">
<style type="text/css">
	.st0{fill:#FFFFFF;}
</style>
<g>
	<path class="st0" d="M0,39.6h10.7v5.2c1.3-1.7,2.6-2.8,3.7-3.6c2.2-1.5,4.8-2.3,7.7-2.3c3.2,0,5.9,0.8,8.1,2.4
		c1.4,1.2,2.6,2.3,3.2,3.7c1.4-1.7,2.8-3.1,4.4-4.1c2.2-1.4,4.8-2.1,7.8-2.1c4.2,0,7.6,1.2,9.9,3.6c2.3,2.3,3.5,5.4,3.5,9.3v29.7
		H48.2V53.7c0-1.8-0.6-3.1-1.8-4.1c-1-0.9-2.4-1.3-4.1-1.3c-2.3,0-4.1,0.8-5.4,2.2C35.6,52,35,53.9,35,56.5v24.9H24.2V53.7
		c0-1.8-0.5-3.1-1.7-4.1c-1-0.9-2.3-1.3-4.1-1.3c-2.3,0-4.2,0.8-5.4,2.2c-1.3,1.5-1.9,3.5-1.9,6.1v24.9H0.3V39.6H0z"/>
	<rect x="62.3" y="87.7" class="st0" width="46.3" height="11.3"/>
	<path class="st0" d="M145.9,53.1h-10.4c0-3.7-2.6-5.7-7.7-5.7c-1.9,0-3.6,0.4-4.8,1.2c-1,0.6-1.5,1.5-1.5,2.7c0,1,0.4,1.8,1.3,2.2
		c0.5,0.3,1.4,0.6,2.6,0.9l13.6,4c5.4,1.5,8.2,5,8.2,10.4c0,2.6-0.6,5-2.1,7.2c-2.8,4.6-8.2,7-16.1,7c-7.3,0-12.6-1.5-15.8-4.6
		c-2.4-2.3-3.7-5.4-3.9-9.3h10.5c0.4,1.9,1,3.2,2.1,4c1.4,1,3.6,1.4,6.4,1.4c2.6,0,4.5-0.4,6-1.2c1.3-0.6,1.9-1.7,1.9-3
		c0-0.9-0.4-1.8-1.2-2.3c-0.5-0.4-1.3-0.6-2.4-1l-12.9-4.1c-2.4-0.8-4.1-1.4-4.9-1.9c-2.8-1.7-4.2-4.5-4.2-8.3
		c0-3.1,0.9-5.8,2.6-8.1c2.8-3.9,7.7-5.8,14.5-5.8c6.7,0,11.7,1.8,14.8,5.3C144.7,46.6,145.9,49.5,145.9,53.1z"/>
	<rect y="156.8" class="st0" width="11.6" height="11.3"/>
	<path class="st0" d="M17.8,111.8h10.8v20.8c1.3-2.1,2.7-3.6,4.2-4.5c2.3-1.5,5-2.3,8-2.3c3.7,0,6.8,1,9.4,3.2
		c2.8,2.4,4.2,6.2,4.2,11.3v27.8H43.6v-25.4c0-2.3-0.4-4-1.3-5.2c-1.2-1.7-3-2.6-5.3-2.6c-2.2,0-4,0.6-5.5,1.8
		c-1.9,1.5-2.8,3.6-2.8,6.3v25H17.9L17.8,111.8L17.8,111.8z"/>
	<path class="st0" d="M83,127.3v7.2h-6v22.8c0,1.9,0.3,3.1,0.8,3.7c0.5,0.6,1.4,0.8,2.7,0.8c0.6,0,1.5-0.1,2.4-0.3v7.6
		c-1.8,0.5-4,0.9-6.3,0.9c-7.1,0-10.5-3.2-10.5-9.8v-25.8h-5.4v-7.2H66v-11.2h10.8v11.2H83z"/>
	<path class="st0" d="M90.1,126.4h10.7v5.2c1.3-1.7,2.6-2.8,3.7-3.6c2.2-1.5,4.8-2.3,7.7-2.3c3.2,0,5.9,0.8,8.1,2.4
		c1.4,1.2,2.6,2.3,3.2,3.7c1.4-1.7,2.8-3.1,4.4-4.1c2.2-1.4,4.8-2.1,7.8-2.1c4.2,0,7.6,1.2,9.9,3.6c2.3,2.3,3.5,5.4,3.5,9.3v29.7
		h-10.8v-27.7c0-1.8-0.6-3.1-1.8-4.1c-1-0.9-2.4-1.3-4.1-1.3c-2.3,0-4.1,0.8-5.4,2.2c-1.3,1.5-1.9,3.5-1.9,6.1v24.9h-10.8v-27.7
		c0-1.8-0.5-3.1-1.7-4.1c-1-0.9-2.3-1.3-4.1-1.3c-2.3,0-4.2,0.8-5.4,2.2c-1.3,1.5-1.9,3.5-1.9,6.1v24.9H90.3v-41.8H90.1z"/>
	<rect x="159.3" y="111.8" class="st0" width="10.8" height="56.3"/>
</g>
</svg>
