<?xml version="1.0" encoding="utf-8"?>
<!-- Generator: Adobe Illustrator 25.0.0, SVG Export Plug-In . SVG Version: 6.00 Build 0)  -->
<svg version="1.1" id="Livello_1" xmlns="http://www.w3.org/2000/svg" xmlns:xlink="http://www.w3.org/1999/xlink" x="0px" y="0px"
	 viewBox="0 0 300 100" style="enable-background:new 0 0 300 100;" xml:space="preserve">
<style type="text/css">
	.st0{fill:#FFFFFF;}
</style>
<g>
	<path class="st0" d="M22.2,32.6h8.3v4c1-1.3,2-2.2,2.9-2.8c1.7-1.2,3.7-1.8,6-1.8c2.5,0,4.6,0.6,6.3,1.9c1.1,0.9,2,1.8,2.5,2.9
		c1.1-1.3,2.2-2.4,3.4-3.2c1.7-1.1,3.7-1.6,6.1-1.6c3.3,0,5.9,0.9,7.7,2.8c1.8,1.8,2.7,4.2,2.7,7.2V65h-8.4V43.5
		c0-1.4-0.5-2.4-1.4-3.2c-0.8-0.7-1.9-1-3.2-1c-1.8,0-3.2,0.6-4.2,1.7c-1,1.2-1.5,2.7-1.5,4.7V65h-8.4V43.5c0-1.4-0.4-2.4-1.3-3.2
		c-0.8-0.7-1.8-1-3.2-1c-1.8,0-3.3,0.6-4.2,1.7c-1,1.2-1.5,2.7-1.5,4.7V65h-8.4V32.6z"/>
	<rect x="70.6" y="69.9" class="st0" width="36" height="8.8"/>
	<path class="st0" d="M135.6,43.1h-8.1c0-2.9-2-4.4-6-4.4c-1.5,0-2.8,0.3-3.7,0.9c-0.8,0.5-1.2,1.2-1.2,2.1c0,0.8,0.3,1.4,1,1.7
		c0.4,0.2,1.1,0.5,2,0.7l10.6,3.1c4.2,1.2,6.4,3.9,6.4,8.1c0,2-0.5,3.9-1.6,5.6c-2.2,3.6-6.4,5.4-12.5,5.4c-5.7,0-9.8-1.2-12.3-3.6
		c-1.9-1.8-2.9-4.2-3-7.2h8.2c0.3,1.5,0.8,2.5,1.6,3.1c1.1,0.8,2.8,1.1,5,1.1c2,0,3.5-0.3,4.7-0.9c1-0.5,1.5-1.3,1.5-2.3
		c0-0.7-0.3-1.4-0.9-1.8c-0.4-0.3-1-0.5-1.9-0.8l-10-3.2c-1.9-0.6-3.2-1.1-3.8-1.5c-2.2-1.3-3.3-3.5-3.3-6.4c0-2.4,0.7-4.5,2-6.3
		c2.2-3,6-4.5,11.3-4.5c5.2,0,9.1,1.4,11.5,4.1C134.7,38,135.6,40.3,135.6,43.1z"/>
	<rect x="142.5" y="56.3" class="st0" width="9" height="8.8"/>
	<path class="st0" d="M159.4,21.3h8.4v16.1c1-1.6,2.1-2.8,3.3-3.5c1.8-1.2,3.9-1.8,6.2-1.8c2.9,0,5.3,0.8,7.3,2.5
		c2.2,1.9,3.3,4.8,3.3,8.8V65h-8.4V45.3c0-1.8-0.3-3.1-1-4c-0.9-1.3-2.3-2-4.1-2c-1.7,0-3.1,0.5-4.3,1.4c-1.5,1.2-2.2,2.8-2.2,4.9
		V65h-8.4V21.3z"/>
	<path class="st0" d="M210.1,33.3v5.6h-4.7v17.7c0,1.5,0.2,2.4,0.6,2.9s1.1,0.6,2.1,0.6c0.5,0,1.2-0.1,1.9-0.2v5.9
		c-1.4,0.4-3.1,0.7-4.9,0.7c-5.5,0-8.2-2.5-8.2-7.6V38.9h-4.2v-5.6h4.2v-8.7h8.4v8.7H210.1z"/>
	<path class="st0" d="M215.6,32.6h8.3v4c1-1.3,2-2.2,2.9-2.8c1.7-1.2,3.7-1.8,6-1.8c2.5,0,4.6,0.6,6.3,1.9c1.1,0.9,2,1.8,2.5,2.9
		c1.1-1.3,2.2-2.4,3.4-3.2c1.7-1.1,3.7-1.6,6.1-1.6c3.3,0,5.9,0.9,7.7,2.8c1.8,1.8,2.7,4.2,2.7,7.2V65h-8.4V43.5
		c0-1.4-0.5-2.4-1.4-3.2c-0.8-0.7-1.9-1-3.2-1c-1.8,0-3.2,0.6-4.2,1.7c-1,1.2-1.5,2.7-1.5,4.7V65h-8.4V43.5c0-1.4-0.4-2.4-1.3-3.2
		c-0.8-0.7-1.8-1-3.2-1c-1.8,0-3.3,0.6-4.2,1.7c-1,1.2-1.5,2.7-1.5,4.7V65h-8.4V32.6z"/>
	<rect x="269.4" y="21.3" class="st0" width="8.4" height="43.7"/>
</g>
</svg>
